<?xml version="1.0" standalone="no"?>
<!DOCTYPE svg PUBLIC "-//W3C//DTD SVG 1.1//EN" "http://www.w3.org/Graphics/SVG/1.1/DTD/svg11.dtd" >
<svg>
<metadata>
Created by FontForge 20090622 at Mon May 18 11:52:07 2015
 By deploy user
Copyright 2003 Adobe Systems Incorporated. All rights reserved.
</metadata>
<defs>
<font id="HillHouse" horiz-adv-x="611" >
  <font-face 
    font-family="Hill House"
    font-weight="500"
    font-stretch="normal"
    units-per-em="1000"
    panose-1="2 0 6 6 4 0 0 2 0 4"
    ascent="800"
    descent="-200"
    x-height="736"
    cap-height="750"
    bbox="-31 -130 767 789"
    underline-thickness="50"
    underline-position="-75"
    unicode-range="U+0020-U+007A"
  />
<missing-glyph horiz-adv-x="250" 
 />
    <glyph glyph-name=".notdef" horiz-adv-x="250" 
 />
    <glyph glyph-name=".null" horiz-adv-x="0" 
 />
    <glyph glyph-name="nonmarkingreturn" horiz-adv-x="333" 
 />
    <glyph glyph-name="space" unicode=" " horiz-adv-x="250" 
 />
    <glyph glyph-name="ampersand" unicode="&#x26;" horiz-adv-x="667" 
d="M616 468h-95v-456h-5q-6 -1 -14 -1.5t-20 -0.5h-26t-30.5 0.5t-35 2.5t-37.5 5t-40 7.5t-41 10.5q-100 28 -152 98.5t-52 158.5q0 100 57.5 163.5t184.5 89.5l-79 118h267v-77l-113 1l21 -44h210v-76zM436 91v378h-100q-74 0 -125 -41.5t-52 -121.5q-2 -113 113 -181
q88 -43 159 -35z" />
    <glyph glyph-name="zero" unicode="0" horiz-adv-x="500" 
d="M72 87h341v-82h-341v82zM532 469q0 -118 -79 -193t-199 -75t-202.5 75.5t-82.5 192.5q0 120 79.5 203.5t196.5 83.5q119 0 203 -84t84 -203zM424 479q0 71 -50.5 122t-122.5 51q-71 0 -121.5 -51t-50.5 -122q0 -72 50.5 -122.5t121.5 -50.5q72 0 122.5 50.5t50.5 122.5z
" />
    <glyph glyph-name="one" unicode="1" horiz-adv-x="500" 
d="M331 0h-97v617l-96 -44l-31 70l140 80h84v-723z" />
    <glyph glyph-name="two" unicode="2" horiz-adv-x="500" 
d="M452 5h-401l27 42.5t61 101l80 139.5t69.5 138t42.5 115q10 47 -20 78.5t-81 31.5q-19 0 -38 -4.5t-38 -22.5t-19 -47q0 -19 5 -32.5t10.5 -21.5t18 -14t19.5 -7.5l23.5 -5l21.5 -4.5v-85l-47 3q-63 4 -103 50.5t-40 108.5q0 49 20.5 84t54 52t66 25t67.5 8q86 1 134 -59
t39 -133q-7 -54 -62.5 -170t-107.5 -204l-53 -89h251v-78z" />
    <glyph glyph-name="three" unicode="3" horiz-adv-x="500" 
d="M457 352q0 -83 -38 -150t-101 -108t-138 -63t-155 -25v79q7 0 19 1.5t46 8t65 16t69 30t65.5 46.5t46 67t18.5 90q0 40 -14.5 71.5t-35.5 46.5t-38 22.5t-27 7.5h-186l112 170h-130v86h296l-117 -167q242 -21 243 -229z" />
    <glyph glyph-name="four" unicode="4" horiz-adv-x="500" 
d="M513 131h-117v-132h-92v136h-264l129 615h88l-99 -527h143v307h103v-307h109v-92z" />
    <glyph glyph-name="five" unicode="5" horiz-adv-x="500" 
d="M487 335q0 -131 -94.5 -226t-267.5 -120q-45 -7 -51 -7v94q72 19 116.5 34t85 35.5t61.5 45.5t33 59.5t12 81.5q0 61 -37 105t-101 45l-173 -1l35 252h268v-79h-187l-9 -84q157 2 233 -50.5t76 -184.5z" />
    <glyph glyph-name="six" unicode="6" horiz-adv-x="500" 
d="M471 175q-1 -83 -56.5 -137t-131.5 -54h-31q-57 0 -99.5 24.5t-64 62.5t-32 75.5t-10.5 72.5q0 225 192 521h108q-13 -26 -55.5 -105t-58 -111.5t-40.5 -91.5t-34.5 -105t-9.5 -93q0 -28 1.5 -45.5t8.5 -42t19.5 -39t38 -25t61.5 -10.5q38 0 65 21.5t34 55.5
q11 57 -15 70q-23 12 -38.5 16t-35 -1t-38.5 -24l-54 57l21 18t48.5 28.5t66.5 15.5q35 -2 61.5 -15t41 -30t23.5 -39t11.5 -38.5t2.5 -31.5z" />
    <glyph glyph-name="seven" unicode="7" horiz-adv-x="500" 
d="M452 734h2v-6v-38q-75 -68 -144 -223q-77 -171 -96 -362l-11 -103q7 -4 -84 -3q-14 1 -15 1q15 199 33 259q27 94 57 169.5t51.5 114.5t39 65t23 33t1.5 7h-233v86h376z" />
    <glyph glyph-name="eight" unicode="8" horiz-adv-x="500" 
d="M393 216q0 61 -42.5 104t-103.5 43t-104 -43t-43 -104t43 -103.5t104 -42.5t103.5 42.5t42.5 103.5zM388 618q0 -45 -24.5 -78.5t-65.5 -46.5v-49q81 -20 133.5 -85.5t52.5 -150.5q0 -100 -66.5 -163.5t-168.5 -63.5t-172 63.5t-70 163.5q0 91 55.5 159t142.5 81v45
q-42 13 -68 46.5t-26 78.5q0 59 39 100t97 41q59 0 100 -41.5t41 -99.5zM315 619q0 27 -19 45.5t-46 18.5t-46 -18.5t-19 -45.5t19 -46t46 -19t46 19t19 46z" />
    <glyph glyph-name="nine" unicode="9" horiz-adv-x="500" 
d="M46 568q1 83 56.5 137.5t131.5 54.5h32q57 0 99 -24.5t64 -62.5t32 -75.5t10 -73.5q0 -228 -191 -520h-108l55.5 105t57.5 110.5t41.5 92t34 104.5t9.5 94q0 27 -1.5 44.5t-8.5 42t-20 39t-38.5 25t-61.5 10.5q-38 0 -64.5 -21.5t-34.5 -55.5q-11 -57 15 -70
q34 -17 59.5 -17t53.5 26l53 -57q-7 -7 -20 -18t-49 -28.5t-67 -15.5q-43 3 -73 21t-43.5 44t-18.5 47.5t-5 41.5z" />
    <glyph glyph-name="less" unicode="&#x3c;" 
d="M454 185q0 -80 -53.5 -131t-134.5 -51q-82 0 -138.5 51.5t-56.5 130.5q0 82 54 138.5t134 56.5q81 0 138 -57t57 -138zM381 192q0 49 -34 83.5t-83 34.5t-83.5 -34.5t-34.5 -83.5t34.5 -83t83.5 -34t83 34t34 83zM98 760h343v-79h-127v-284h-89v284h-126z" />
    <glyph glyph-name="equal" unicode="=" horiz-adv-x="500" 
d="M457 384v-70h-413v70h413zM457 194v-70h-413v70h413z" />
    <glyph glyph-name="greater" unicode="&#x3e;" 
d="M404 601q0 -77 -51.5 -126t-130.5 -49t-133 49t-54 126q0 79 52 133.5t129 54.5q78 0 133 -55t55 -133zM333 608q0 47 -33 80t-80 33q-46 0 -79.5 -33.5t-33.5 -79.5q0 -47 33 -80.5t80 -33.5t80 33.5t33 80.5zM160 228v-229h-76v388h236v-71h-160v-29h212v-59h-212z" />
    <glyph glyph-name="question" unicode="?" horiz-adv-x="500" 
d="M287 172h-89q0 78 13.5 113t65.5 93l12.5 14.5l14.5 16.5t12 14q29 37 42 65t13 68q0 51 -25 87.5t-76 36.5q-125 0 -123 -166h-87q-4 100 45.5 168t152.5 68q92 0 148 -51t56 -137q0 -47 -15 -86t-32.5 -61t-52 -59.5t-54.5 -64.5q-14 -25 -16 -34q-5 -19 -5 -85zM289 0
h-91v100h91v-100z" />
    <glyph glyph-name="at" unicode="@" horiz-adv-x="556" 
d="M463 390h-47l-13 41h-123l-10 -41h-46l100 370l39 -1zM380 523l-40 139l-35 -139h75zM395 468l-5 18h-98l-4 -18h107zM230 291v48h236v-48h-90v-295h-53v295h-93z" />
    <glyph glyph-name="A" unicode="A" horiz-adv-x="556" 
d="M516 0h-93l-27 82h-245l-21 -82h-91l199 739l78 -1zM351 266l-80 278l-71 -278h151zM381 156l-11 36h-196l-8 -36h215z" />
    <glyph glyph-name="B" unicode="B" horiz-adv-x="559" 
d="M527 229q0 -53 -12 -89t-58 -90q-40 -27 -91 -41.5t-71 -12.5h-238v761h208q21 0 52 -13.5t55.5 -43t17.5 -64.5l-37 -108q104 -83 139 -151t35 -148zM285 621q0 11 -4.5 23t-4.5 15h-126v-158q135 64 135 120zM428 229q0 63 -45 128.5t-117 105.5l-115 -70v-307h137
q53 -1 96.5 41.5t43.5 101.5z" />
    <glyph glyph-name="C" unicode="C" horiz-adv-x="556" 
d="M522 2q-126 0 -234 55.5t-174 157t-66 226.5q0 77 26.5 142t67.5 105t88 62.5t92 22.5h27h28t25 -1t29 -3.5t28 -7.5t33 -12l-27 -92q-29 14 -58.5 17t-103.5 3q-62 0 -111.5 -76.5t-47.5 -159.5q5 -145 101 -238t277 -119v-82z" />
    <glyph glyph-name="D" unicode="D" 
d="M543 470q0 -160 -58 -254.5t-194 -164.5q-29 -15 -112 -35.5t-110 -20.5l5 742q4 3 13.5 7.5t54 12.5t106.5 8q74 0 130 -21.5t86.5 -52.5t49 -74t24 -76.5t5.5 -70.5zM440 448q0 50 -16 99t-56 88t-96 42q-33 2 -57 -1.5t-31 -8.5l-8 -5v-556q121 30 192.5 123.5
t71.5 218.5z" />
    <glyph glyph-name="E" unicode="E" horiz-adv-x="569" 
d="M83 0v765h337v-95h-246v-52h355v-85h-355v-450h284v-83h-375z" />
    <glyph glyph-name="F" unicode="F" horiz-adv-x="444" 
d="M187 0h-103v736h352v-82h-249v-61h331v-75h-331v-518z" />
    <glyph glyph-name="G" unicode="G" 
d="M531 -8q-86 13 -151.5 32t-130 56t-106.5 89t-67.5 132.5t-25.5 185.5q0 117 63.5 183t168.5 85q46 7 88.5 6t72.5 -5l30 -5v-88q-13 2 -34.5 6.5t-42.5 7t-46 2.5q-30 -1 -58.5 -8.5t-59 -24t-52 -49.5t-27.5 -78q-8 -63 4.5 -127t44.5 -121.5t92.5 -99.5t140.5 -56v483
h96v-606z" />
    <glyph glyph-name="H" unicode="H" 
d="M515 -8h-90v427h-228v-427h-95v755h95v-141h228v139h90v-753zM426 501v31h-229v-31h229z" />
    <glyph glyph-name="I" unicode="I" horiz-adv-x="278" 
d="M191 0h-93v750h93v-750z" />
    <glyph glyph-name="J" unicode="J" horiz-adv-x="444" 
d="M20 93l81 39q27 -44 43.5 -54.5t60.5 -10.5q29 0 49.5 14t29.5 36t12 39t3 32v559h101v-565q0 -56 -19 -97t-50 -62t-64 -30t-69 -9q-128 0 -178 109z" />
    <glyph glyph-name="K" unicode="K" horiz-adv-x="556" 
d="M555 -2h-102l-244 483l-49 -49v-430h-99v744h104v-198l206 200h102l-178 -197z" />
    <glyph glyph-name="L" unicode="L" horiz-adv-x="501" 
d="M430 0h-347v763h98v-678h249v-85z" />
    <glyph glyph-name="M" unicode="M" horiz-adv-x="778" 
d="M648 4h-104l-4 570l-153 -163l-150 171v-574h-103v740h91l170 -196l161 196h92v-744zM444 197h-94v79h94v-79zM444 8h-90v83h90v-83z" />
    <glyph glyph-name="N" unicode="N" 
d="M512 7h-86q1 -3 1.5 52t0 111.5t-1.5 58.5l-237 320v-543h-97v748h75l259 -357v356l86 1v-747z" />
    <glyph glyph-name="O" unicode="O" 
d="M528 522q0 -100 -67 -163.5t-168 -63.5q-102 0 -172 64t-70 163q0 101 67 172t167 71q101 0 172 -71.5t71 -171.5zM347 3h-110v98h110v-98zM437 531v-1q0 61 -43 104t-103 43q-61 0 -104 -43t-43 -103q0 -61 43 -104t103 -43q61 0 104 43t43 104z" />
    <glyph glyph-name="P" unicode="P" horiz-adv-x="556" 
d="M494 591q-1 -48 -15.5 -85t-33 -58.5t-53 -40.5t-61 -28l-73.5 -24t-75 -26v-325h-92v733h207q28 0 60 -7.5t64.5 -23.5t52.5 -46t19 -69zM400 577q1 38 -21.5 51t-83.5 21h-105v-218q107 30 143 51q65 37 67 95z" />
    <glyph glyph-name="Q" unicode="Q" horiz-adv-x="642" 
d="M582 -52q0 -2 -82 -21.5l-164 -38.5l-81 -18l-1 160q-2 -2 -24.5 6.5t-56 32t-66 59.5t-55.5 102t-23 148q0 58 4.5 105t20.5 103.5t44 95t79 65t121 26.5h34q48 0 86.5 -17t63.5 -46.5t43 -62t28 -71.5t14.5 -67t6.5 -57q2 -21 2 -65q0 -87 -23.5 -155.5t-57 -105
t-67 -59t-58.5 -31.5l-24 -10v-51l236 49v-76zM482 383q0 145 -45 222.5t-129 82.5q-31 -1 -56.5 -9t-43.5 -20.5t-32.5 -31.5t-24 -36.5t-16 -42t-9.5 -42.5t-4.5 -43t-1.5 -38t0.5 -33t0.5 -23q0 -94 43 -169.5t93 -75.5v271h23h42h25v-271q42 9 71 39t41.5 72t17.5 77
t5 71z" />
    <glyph glyph-name="R" unicode="R" 
d="M577 -2h-112l-225 440h-50l1 -439h-96v751h250q89 0 132 -48t31 -136q-11 -83 -158 -122zM407 586q17 49 -30 73q-13 7 -59.5 9t-87.5 0l-40 -2v-134h133q63 2 84 54z" />
    <glyph glyph-name="S" unicode="S" horiz-adv-x="556" 
d="M495 212q0 -75 -63 -150t-141 -75q-68 0 -116.5 10t-62 17.5t-16.5 11.5l42 81q65 -26 101 -31q75 -11 120.5 39.5t35.5 94.5q-1 3 -3 27t-6.5 37.5t-27 45.5t-61.5 70q-1 1 -14 13t-17.5 16.5l-18.5 18t-21.5 21.5l-20.5 23t-20 25.5l-17 26t-15.5 28t-10 27.5t-5.5 29
q-6 72 38 109.5t108 43.5q26 2 54.5 -3.5t44.5 -12.5l15 -7q3 4 -7 -52q-3 -19 -5 -26q-8 2 -18.5 5t-40 8t-38.5 -1q-80 -27 -31 -105q130 -134 164 -178q73 -97 74 -187z" />
    <glyph glyph-name="T" unicode="T" horiz-adv-x="500" 
d="M15 664v96h471v-96h-179v-664h-107v664h-185z" />
    <glyph glyph-name="U" unicode="U" 
d="M81 181v569h99v-539q0 -138 128 -138q62 0 90.5 42t28.5 96v539h94v-569q0 -30 -12 -62t-35.5 -63t-67 -50.5t-98.5 -19.5q-62 0 -109 22.5t-71 56t-35.5 63.5t-11.5 53z" />
    <glyph glyph-name="V" unicode="V" horiz-adv-x="556" 
d="M430 754h92l-193 -754h-103l-192 754h92l150 -569v-7q15 23 154 576z" />
    <glyph glyph-name="W" unicode="W" horiz-adv-x="833" 
d="M767 748l-204 -745h-95l-58 242l-65 -247h-88q-202 753 -205 755l105 -1l148 -559l56 214l-82 341h90l45 -161l39 161h96l-86 -339l61 -216l147 555h96z" />
    <glyph glyph-name="X" unicode="X" horiz-adv-x="551" 
d="M19 1l211 446l-141 294h98l96 -184l92 184h98l-138 -294l206 -446h-102l-161 324l-160 -324h-99z" />
    <glyph glyph-name="Y" unicode="Y" horiz-adv-x="556" 
d="M154 734l127 -228l137 230h92l-188 -328v-408h-90v406l-179 328h101z" />
    <glyph glyph-name="Z" unicode="Z" horiz-adv-x="500" 
d="M498 0h-494l12 33q59 135 309 642h-255v75h386q0 4 -81.5 -165l-163 -339t-81.5 -171h368v-75z" />
    <glyph glyph-name="grave" unicode="`" horiz-adv-x="333" 
d="M35 765h109l89 -141h-67z" />
    <glyph glyph-name="a" unicode="a" horiz-adv-x="556" 
d="M516 0h-93l-27 82h-245l-21 -82h-91l199 739l78 -1zM351 266l-80 278l-71 -278h151zM381 156l-11 36h-196l-8 -36h215z" />
    <glyph glyph-name="b" unicode="b" horiz-adv-x="559" 
d="M527 229q0 -53 -12 -89t-58 -90q-40 -27 -91 -41.5t-71 -12.5h-238v761h208q21 0 52 -13.5t55.5 -43t17.5 -64.5l-37 -108q104 -83 139 -151t35 -148zM285 621q0 11 -4.5 23t-4.5 15h-126v-158q135 64 135 120zM428 229q0 63 -45 128.5t-117 105.5l-115 -70v-307h137
q53 -1 96.5 41.5t43.5 101.5z" />
    <glyph glyph-name="c" unicode="c" horiz-adv-x="556" 
d="M522 2q-126 0 -234 55.5t-174 157t-66 226.5q0 77 26.5 142t67.5 105t88 62.5t92 22.5h27h28t25 -1t29 -3.5t28 -7.5t33 -12l-27 -92q-29 14 -58.5 17t-103.5 3q-62 0 -111.5 -76.5t-47.5 -159.5q5 -145 101 -238t277 -119v-82z" />
    <glyph glyph-name="d" unicode="d" 
d="M543 470q0 -160 -58 -254.5t-194 -164.5q-29 -15 -112 -35.5t-110 -20.5l5 742q4 3 13.5 7.5t54 12.5t106.5 8q74 0 130 -21.5t86.5 -52.5t49 -74t24 -76.5t5.5 -70.5zM440 448q0 50 -16 99t-56 88t-96 42q-33 2 -57 -1.5t-31 -8.5l-8 -5v-556q121 30 192.5 123.5
t71.5 218.5z" />
    <glyph glyph-name="e" unicode="e" horiz-adv-x="569" 
d="M83 0v765h337v-95h-246v-52h355v-85h-355v-450h284v-83h-375z" />
    <glyph glyph-name="f" unicode="f" horiz-adv-x="444" 
d="M187 0h-103v736h352v-82h-249v-61h331v-75h-331v-518z" />
    <glyph glyph-name="g" unicode="g" 
d="M531 -8q-86 13 -151.5 32t-130 56t-106.5 89t-67.5 132.5t-25.5 185.5q0 117 63.5 183t168.5 85q46 7 88.5 6t72.5 -5l30 -5v-88q-13 2 -34.5 6.5t-42.5 7t-46 2.5q-30 -1 -58.5 -8.5t-59 -24t-52 -49.5t-27.5 -78q-8 -63 4.5 -127t44.5 -121.5t92.5 -99.5t140.5 -56v483
h96v-606z" />
    <glyph glyph-name="h" unicode="h" 
d="M515 -8h-90v427h-228v-427h-95v755h95v-141h228v139h90v-753zM426 501v31h-229v-31h229z" />
    <glyph glyph-name="i" unicode="i" horiz-adv-x="278" 
d="M191 0h-93v750h93v-750z" />
    <glyph glyph-name="j" unicode="j" horiz-adv-x="444" 
d="M20 93l81 39q27 -44 43.5 -54.5t60.5 -10.5q29 0 49.5 14t29.5 36t12 39t3 32v559h101v-565q0 -56 -19 -97t-50 -62t-64 -30t-69 -9q-128 0 -178 109z" />
    <glyph glyph-name="k" unicode="k" horiz-adv-x="556" 
d="M555 -2h-102l-244 483l-49 -49v-430h-99v744h104v-198l206 200h102l-178 -197z" />
    <glyph glyph-name="l" unicode="l" horiz-adv-x="501" 
d="M430 0h-347v763h98v-678h249v-85z" />
    <glyph glyph-name="m" unicode="m" horiz-adv-x="778" 
d="M648 4h-104l-4 570l-153 -163l-150 171v-574h-103v740h91l170 -196l161 196h92v-744zM444 197h-94v79h94v-79zM444 8h-90v83h90v-83z" />
    <glyph glyph-name="n" unicode="n" 
d="M512 7h-86q1 -3 1.5 52t0 111.5t-1.5 58.5l-237 320v-543h-97v748h75l259 -357v356l86 1v-747z" />
    <glyph glyph-name="o" unicode="o" 
d="M528 522q0 -100 -67 -163.5t-168 -63.5q-102 0 -172 64t-70 163q0 101 67 172t167 71q101 0 172 -71.5t71 -171.5zM347 3h-110v98h110v-98zM437 531v-1q0 61 -43 104t-103 43q-61 0 -104 -43t-43 -103q0 -61 43 -104t103 -43q61 0 104 43t43 104z" />
    <glyph glyph-name="p" unicode="p" horiz-adv-x="556" 
d="M494 591q-1 -48 -15.5 -85t-33 -58.5t-53 -40.5t-61 -28l-73.5 -24t-75 -26v-325h-92v733h207q28 0 60 -7.5t64.5 -23.5t52.5 -46t19 -69zM400 577q1 38 -21.5 51t-83.5 21h-105v-218q107 30 143 51q65 37 67 95z" />
    <glyph glyph-name="q" unicode="q" horiz-adv-x="642" 
d="M582 -52q0 -2 -82 -21.5l-164 -38.5l-81 -18l-1 160q-2 -2 -24.5 6.5t-56 32t-66 59.5t-55.5 102t-23 148q0 58 4.5 105t20.5 103.5t44 95t79 65t121 26.5h34q48 0 86.5 -17t63.5 -46.5t43 -62t28 -71.5t14.5 -67t6.5 -57q2 -21 2 -65q0 -87 -23.5 -155.5t-57 -105
t-67 -59t-58.5 -31.5l-24 -10v-51l236 49v-76zM482 383q0 145 -45 222.5t-129 82.5q-31 -1 -56.5 -9t-43.5 -20.5t-32.5 -31.5t-24 -36.5t-16 -42t-9.5 -42.5t-4.5 -43t-1.5 -38t0.5 -33t0.5 -23q0 -94 43 -169.5t93 -75.5v271h23h42h25v-271q42 9 71 39t41.5 72t17.5 77
t5 71z" />
    <glyph glyph-name="r" unicode="r" 
d="M577 -2h-112l-225 440h-50l1 -439h-96v751h250q89 0 132 -48t31 -136q-11 -83 -158 -122zM407 586q17 49 -30 73q-13 7 -59.5 9t-87.5 0l-40 -2v-134h133q63 2 84 54z" />
    <glyph glyph-name="s" unicode="s" horiz-adv-x="556" 
d="M495 212q0 -75 -63 -150t-141 -75q-68 0 -116.5 10t-62 17.5t-16.5 11.5l42 81q65 -26 101 -31q75 -11 120.5 39.5t35.5 94.5q-1 3 -3 27t-6.5 37.5t-27 45.5t-61.5 70q-1 1 -14 13t-17.5 16.5l-18.5 18t-21.5 21.5l-20.5 23t-20 25.5l-17 26t-15.5 28t-10 27.5t-5.5 29
q-6 72 38 109.5t108 43.5q26 2 54.5 -3.5t44.5 -12.5l15 -7q3 4 -7 -52q-3 -19 -5 -26q-8 2 -18.5 5t-40 8t-38.5 -1q-80 -27 -31 -105q130 -134 164 -178q73 -97 74 -187z" />
    <glyph glyph-name="t" unicode="t" horiz-adv-x="500" 
d="M15 664v96h471v-96h-179v-664h-107v664h-185z" />
    <glyph glyph-name="u" unicode="u" 
d="M81 181v569h99v-539q0 -138 128 -138q62 0 90.5 42t28.5 96v539h94v-569q0 -30 -12 -62t-35.5 -63t-67 -50.5t-98.5 -19.5q-62 0 -109 22.5t-71 56t-35.5 63.5t-11.5 53z" />
    <glyph glyph-name="v" unicode="v" horiz-adv-x="556" 
d="M430 754h92l-193 -754h-103l-192 754h92l150 -569v-7q15 23 154 576z" />
    <glyph glyph-name="w" unicode="w" horiz-adv-x="833" 
d="M767 748l-204 -745h-95l-58 242l-65 -247h-88q-202 753 -205 755l105 -1l148 -559l56 214l-82 341h90l45 -161l39 161h96l-86 -339l61 -216l147 555h96z" />
    <glyph glyph-name="x" unicode="x" horiz-adv-x="551" 
d="M19 1l211 446l-141 294h98l96 -184l92 184h98l-138 -294l206 -446h-102l-161 324l-160 -324h-99z" />
    <glyph glyph-name="y" unicode="y" horiz-adv-x="556" 
d="M154 734l127 -228l137 230h92l-188 -328v-408h-90v406l-179 328h101z" />
    <glyph glyph-name="z" unicode="z" horiz-adv-x="500" 
d="M498 0h-494l12 33q59 135 309 642h-255v75h386q0 4 -81.5 -165l-163 -339t-81.5 -171h368v-75z" />
  </font>
</defs>
</svg>
